<svg width="96" height="96" xmlns="http://www.w3.org/2000/svg" xmlns:xlink="http://www.w3.org/1999/xlink" overflow="hidden"><defs><clipPath id="clip0"><rect x="0" y="0" width="96" height="96"/></clipPath></defs><g clip-path="url(#clip0)"><path d="M63.5 52C63.0843 51.9976 62.669 51.9726 62.256 51.925L60.45 56.31C54.459 58.661 42.237 59.958 37.174 60L33.837 51.916C33.3934 51.9701 32.9469 51.9981 32.5 52 32.228 52 31.961 51.978 31.693 51.959L46.214 87.14C46.523 87.8887 47.253 88.3771 48.063 88.377L48.063 88.377C48.8737 88.3786 49.6046 87.8892 49.912 87.139L64.412 51.954C64.107 51.978 63.806 52 63.5 52ZM48.053 86.355 42.626 73.2C46.5269 73.0278 50.4003 72.4609 54.187 71.508L48.072 86.355C48.067 86.367 48.058 86.367 48.053 86.355ZM55.19 69.076C51.779 70.435 44.938 71.176 41.81 71.229L37.995 61.985C43.225 61.848 53.219 60.766 59.444 58.75Z"/><path d="M66.9 49.382C62.8443 50.9215 58.2607 49.5232 55.755 45.982 52.734 50.2622 46.8151 51.283 42.5349 48.2619 41.6504 47.6376 40.8793 46.8665 40.255 45.982 37.7493 49.5232 33.1657 50.9215 29.11 49.382 26.6781 48.4671 24.7349 46.584 23.744 44.182 21.7206 39.331 24.0105 33.758 28.86 31.731 28.2936 29.8732 28.0038 27.9422 28 26 28 14.9543 36.9543 6 48 6 59.0457 6 68 14.9543 68 26 67.9978 27.9419 67.7097 29.873 67.145 31.731 71.9945 33.758 74.2844 39.331 72.261 44.182 71.2713 46.583 69.33 48.4659 66.9 49.382ZM55.755 42.982C56.1921 42.9815 56.5789 43.265 56.71 43.682 56.939 44.6418 57.47 45.5027 58.225 46.138 65.769 51.678 74.185 43.813 69.797 36.219 68.8192 34.7486 67.3188 33.7051 65.6 33.3 65.0721 33.1376 64.7759 32.578 64.9384 32.0501 64.9426 32.0363 64.9472 32.0226 64.952 32.009 68.2977 22.6478 63.4211 12.3468 54.0598 9.00116 44.6986 5.6555 34.3977 10.5321 31.052 19.8933 29.652 23.8105 29.652 28.0918 31.052 32.009 31.2365 32.5295 30.9641 33.1011 30.4436 33.2857 30.4292 33.2908 30.4146 33.2956 30.4 33.3 28.6806 33.7037 27.1791 34.7461 26.2 36.216 21.812 43.81 30.228 51.675 37.772 46.135 38.5313 45.5024 39.067 44.6424 39.3 43.682 39.4637 43.1545 40.024 42.8596 40.5514 43.0233 40.8252 43.1082 41.0494 43.3066 41.167 43.568 42.8564 47.3445 47.2874 49.0365 51.0639 47.3471 52.7454 46.5949 54.0908 45.2495 54.843 43.568 55.0039 43.211 55.3584 42.9808 55.75 42.979Z"/></g></svg>