<svg width="96" height="96" xmlns="http://www.w3.org/2000/svg" xmlns:xlink="http://www.w3.org/1999/xlink" overflow="hidden"><defs><clipPath id="clip0"><rect x="0" y="0" width="96" height="96"/></clipPath></defs><g clip-path="url(#clip0)"><path d="M52.193 85.025C47.05 87.085 45.966 85.57 44.467 83.476 43.332 81.889 41.919 79.915 38.656 79.616 35.478 79.316 32.75 80.897 30.107 82.416 26.131 84.705 22.376 86.869 16.592 84.138 16.0925 83.9022 15.4963 84.116 15.2605 84.6155 15.0247 85.115 15.2385 85.7112 15.738 85.947 22.466 89.122 27.055 86.48 31.105 84.147 33.587 82.719 35.934 81.37 38.474 81.602 40.825 81.818 41.759 83.123 42.841 84.634 43.988 86.234 45.241 87.99 48.158 87.99 49.8067 87.9227 51.4279 87.5454 52.937 86.878 53.4501 86.6725 53.6995 86.0901 53.494 85.577 53.2886 85.0639 52.7061 84.8145 52.193 85.02Z"/><path d="M80.024 12.366C78.059 9.318 74.22 7.64 69.215 7.64 68.1051 7.64358 66.9965 7.71773 65.896 7.862 63.5589 8.16213 61.3913 9.24121 59.743 10.925 59.0955 10.123 58.0028 9.83324 57.043 10.209 52.4809 12.0261 48.1688 14.417 44.211 17.324 39.7121 20.566 35.5836 24.293 31.9 28.438 30.0499 30.5527 28.7787 33.1104 28.21 35.862 27.3121 35.6488 26.3849 36.0777 25.966 36.9 23.666 41.288 21.102 48.285 20.688 53.128 20.322 57.428 21.926 61.108 24.775 62.517L25.204 62.728C23.504 65.388 17.532 75.096 15.346 83.282 17.0249 81.1684 18.8397 79.1665 20.779 77.289 20.779 77.289 21.795 72.714 27.944 64.054 28.889 64.4576 29.9064 64.6642 30.934 64.661 32.4885 64.6042 34.0282 64.3372 35.511 63.867 43.005 61.786 48.182 54.68 48.399 54.378 48.9347 53.632 48.8934 52.6171 48.299 51.917 50.6866 50.863 52.8013 49.2765 54.481 47.279 56.3911 44.9993 58.4844 42.8795 60.74 40.941 62.683 39.272 64.96 37.62 67.37 35.87 68.576 34.994 69.823 34.089 71.027 33.179 71.7788 32.6116 72.124 31.6535 71.907 30.737 71.8725 30.5941 71.8253 30.4545 71.766 30.32 72.1047 30.2567 72.4423 30.1847 72.779 30.104 74.9034 29.5819 76.8131 28.4127 78.244 26.758 82.447 21.894 83.045 17.051 80.024 12.366ZM76.732 25.452C75.5767 26.7932 74.0315 27.7403 72.312 28.161 70.9818 28.482 69.6184 28.6445 68.25 28.645 66.5624 28.6459 64.8842 28.3945 63.271 27.899 63.2536 27.8934 63.2353 27.8907 63.217 27.891 63.1447 27.8909 63.0787 27.9321 63.047 27.997 63.0325 28.0282 63.0263 28.0627 63.029 28.097 63.0357 28.1514 63.0656 28.2003 63.111 28.231 65.08 29.5693 67.3075 30.4802 69.65 30.905 69.8573 30.9378 69.9988 31.1324 69.966 31.3397 69.9508 31.4354 69.8997 31.5217 69.823 31.581 66.293 34.248 62.462 36.825 59.438 39.421 57.1009 41.4289 54.9323 43.6249 52.954 45.987 50.1707 49.32 46.0641 51.2625 41.722 51.3 41.0288 51.3004 40.3365 51.2486 39.651 51.145L39.524 51.126C39.5144 51.125 39.5046 51.125 39.495 51.126 39.3912 51.1256 39.3067 51.2095 39.3064 51.3134 39.3061 51.3855 39.3472 51.4514 39.412 51.483 41.7062 52.6025 44.2223 53.193 46.775 53.211 46.775 53.211 41.875 60.023 34.975 61.939 33.6652 62.3562 32.3062 62.599 30.933 62.661 30.056 62.6722 29.1891 62.473 28.405 62.08L26.373 61.08C31.4293 52.0437 37.5741 43.6612 44.67 36.12 48.0732 32.7131 51.7731 29.6162 55.726 26.866 55.8023 26.8105 55.8294 26.7092 55.791 26.623 55.7495 26.5386 55.6532 26.4963 55.563 26.523 54.7915 26.7364 54.0556 27.0622 53.379 27.49 48.5722 30.5405 44.137 34.1404 40.163 38.217 35.178 43.21 28.263 53.37 24.5 59.83 23.0202 57.9968 22.3621 55.6343 22.681 53.3 23.063 48.834 25.507 42.078 27.748 37.811L27.748 37.811C28.2134 39.9211 29.0761 41.9234 30.29 43.711 30.3252 43.7625 30.3836 43.7932 30.446 43.793 30.474 43.7927 30.5016 43.7866 30.527 43.775 30.611 43.7347 30.6533 43.6394 30.627 43.55 30.2693 42.386 30.0386 41.1867 29.939 39.973 29.6706 36.2381 30.9199 32.5529 33.404 29.751 36.9881 25.7188 41.0057 22.0939 45.384 18.942 49.2049 16.1368 53.367 13.8286 57.77 12.073 57.813 12.0559 57.8588 12.0471 57.905 12.047 58.1154 12.0523 58.2815 12.2272 58.2762 12.4375 58.2755 12.464 58.2721 12.4903 58.266 12.516 57.852 14.3596 57.7482 16.2593 57.959 18.137 57.98 18.322 58.004 18.51 58.031 18.695 58.0444 18.787 58.123 18.8555 58.216 18.856L58.216 18.856C58.3069 18.855 58.3841 18.7895 58.4 18.7 58.5899 17.4723 58.9149 16.2693 59.369 15.113 60.5048 12.2568 63.1005 10.2415 66.149 9.849 67.1646 9.71495 68.1877 9.64614 69.212 9.643 73.478 9.643 76.732 10.958 78.34 13.452 81.2 17.875 79.885 21.8 76.732 25.452Z"/></g></svg>