<svg width="96" height="96" xmlns="http://www.w3.org/2000/svg" xmlns:xlink="http://www.w3.org/1999/xlink" overflow="hidden"><defs><clipPath id="clip0"><rect x="0" y="0" width="96" height="96"/></clipPath></defs><g clip-path="url(#clip0)"><path d="M90.5 43.5C90.496 41.4032 89.0444 39.587 87 39.121L87 15 85 15 85 39.121C82.5815 39.6665 81.0632 42.0692 81.6087 44.4877 81.9899 46.1779 83.3098 47.4978 85 47.879L85 67.726C85.0669 71.4856 82.2138 74.6563 78.468 74.985 74.6107 75.2435 71.2741 72.326 71.0157 68.4687 71.0052 68.3127 71 68.1564 71 68 70.9999 67.2442 71.1214 66.4932 71.36 65.776 71.818 64.3981 72.4738 63.0942 73.307 61.905L73.761 61.256 77.919 65.415 77.919 51.827 71.668 60.758C70.7189 62.1145 69.9727 63.6021 69.453 65.174 67.8922 69.8932 70.4526 74.984 75.1718 76.5448 76.0816 76.8457 77.0337 76.9994 77.992 77 78.192 77 78.392 76.994 78.592 76.981 83.3912 76.5847 87.0647 72.5411 87 67.726L87 47.879C89.0444 47.413 90.496 45.5968 90.5 43.5ZM86 46C84.6193 46 83.5 44.8807 83.5 43.5 83.5 42.1193 84.6193 41 86 41 87.3807 41 88.5 42.1193 88.5 43.5 88.5 44.8807 87.3807 46 86 46Z"/><path d="M29.6 44.8C32.7 44.8 37.2 46.3 42.1 47.5 41.3375 49.3052 40.93 51.2405 40.9 53.2L49 48.9C50.425 49.096 51.8616 49.1962 53.3 49.2 60.4 49.2 71.3 43.9 71.3 41.3 71.3 38.7 60.4 33.4 53.3 33.4 51.8616 33.4038 50.425 33.504 49 33.7L40.9 29.4C40.9775 31.3539 41.3832 33.2807 42.1 35.1 37.3 36.3 32.7 37.8 29.6 37.8L21.7 33.3C21.7 36.4 23.4 41.2 23.4 41.2 23.4 41.2 21.7 46 21.7 49.1ZM25.286 40.533C25.053 39.875 24.625 38.526 24.272 37.067L28.61 39.538 29.07 39.8 29.6 39.8C32.208 39.8 35.588 38.9 39.165 37.936 40.281 37.636 41.427 37.33 42.585 37.036L44.922 36.452 43.922 34.263C43.7427 33.8624 43.5936 33.4489 43.476 33.026L48.066 35.462 48.633 35.762 49.268 35.677C50.6043 35.4951 51.9513 35.4025 53.3 35.4 59.342 35.4 67.565 39.492 69.14 41.3 67.565 43.108 59.34 47.2 53.3 47.2 51.9499 47.196 50.6016 47.1018 49.264 46.918L48.629 46.833 48.062 47.133 43.442 49.585C43.5632 49.1665 43.7174 48.7582 43.903 48.364L44.969 46.143 42.576 45.556C41.296 45.243 40.036 44.907 38.818 44.582 35.235 43.626 32.14 42.8 29.6 42.8L29.091 42.8 28.644 43.043 24.244 45.437C24.601 43.937 25.044 42.537 25.283 41.867L25.518 41.199Z"/><path d="M36.8 62.1C35.3616 62.1038 33.925 62.204 32.5 62.4L24.4 58.1C24.4775 60.0539 24.8832 61.9807 25.6 63.8 20.8 65 16.2 66.5 13.1 66.5L5.2 62C5.2 65.1 6.9 69.9 6.9 69.9 6.9 69.9 5.2 74.7 5.2 77.8L13.1 73.3C16.2 73.3 20.7 74.8 25.6 76 24.8375 77.8053 24.43 79.7405 24.4 81.7L32.5 77.4C33.925 77.596 35.3616 77.6962 36.8 77.7 43.9 77.7 54.8 72.4 54.8 69.8 54.8 67.2 43.9 62.1 36.8 62.1ZM36.8 75.7C35.4499 75.696 34.1016 75.6018 32.764 75.418L32.129 75.333 31.562 75.633 26.942 78.085C27.0632 77.6665 27.2174 77.2582 27.403 76.864L28.469 74.643 26.076 74.056C24.796 73.743 23.536 73.407 22.318 73.082 18.735 72.126 15.64 71.3 13.1 71.3L12.57 71.3 12.11 71.562 7.772 74.033C8.125 72.575 8.553 71.225 8.786 70.567L9.021 69.899 8.786 69.233C8.553 68.575 8.125 67.225 7.772 65.767L12.11 68.238 12.57 68.5 13.1 68.5C15.708 68.5 19.087 67.595 22.664 66.636 23.781 66.336 24.927 66.03 26.085 65.736L28.422 65.152 27.422 62.963C27.2427 62.5624 27.0936 62.1489 26.976 61.726L31.566 64.163 32.133 64.463 32.768 64.378C34.1043 64.1957 35.4513 64.1028 36.8 64.1 42.976 64.1 51.047 68.018 52.636 69.805 51.05 71.615 42.836 75.7 36.8 75.7Z"/><path d="M62.8 41.2C63.4075 41.2 63.9 40.7075 63.9 40.1 63.9 39.4925 63.4075 39 62.8 39 62.1925 39 61.7 39.4925 61.7 40.1 61.7054 40.7053 62.1948 41.1946 62.8 41.2Z"/><path d="M46.3 69.9C46.9075 69.9 47.4 69.4075 47.4 68.8 47.4 68.1925 46.9075 67.7 46.3 67.7 45.6925 67.7 45.2 68.1925 45.2 68.8 45.2054 69.4053 45.6948 69.8946 46.3 69.9Z"/></g></svg>